<mxfile host="app.diagrams.net" modified="2023-01-11T07:19:16.635Z" agent="5.0 (Windows)" etag="Zb8550MP6O5tgUuWiltA" version="20.8.3" type="github">
  <diagram id="yPxyJZ8AM_hMuL3Unpa9" name="Train-ing map">
    <mxGraphModel dx="2534" dy="874" grid="1" gridSize="10" guides="1" tooltips="1" connect="1" arrows="1" fold="1" page="1" pageScale="1" pageWidth="1100" pageHeight="850" math="0" shadow="0">
      <root>
        <mxCell id="0" />
        <mxCell id="1" parent="0" />
        <mxCell id="uWUnNED6HEl2aK5fdaIb-10" value="" style="verticalLabelPosition=bottom;verticalAlign=top;html=1;strokeWidth=4;shape=mxgraph.flowchart.on-page_reference;plain-blue;gradientColor=none;fillColor=#000000;strokeColor=#000000;rounded=1;" parent="1" vertex="1">
          <mxGeometry x="-510" y="417" width="30" height="30" as="geometry" />
        </mxCell>
        <mxCell id="uWUnNED6HEl2aK5fdaIb-80" value="" style="edgeStyle=orthogonalEdgeStyle;curved=1;rounded=1;orthogonalLoop=1;jettySize=auto;html=1;endArrow=none;endFill=0;strokeWidth=4;fontSize=12;verticalAlign=top;fillColor=#e1d5e7;strokeColor=#9673a6;gradientColor=#EA6B66;startArrow=none;exitX=0.5;exitY=1;exitDx=0;exitDy=0;exitPerimeter=0;" parent="1" source="DearfV66aNQ_4xWSn69P-69" edge="1">
          <mxGeometry relative="1" as="geometry">
            <mxPoint x="915" y="290" as="targetPoint" />
            <mxPoint x="370" y="281" as="sourcePoint" />
          </mxGeometry>
        </mxCell>
        <mxCell id="DearfV66aNQ_4xWSn69P-120" style="edgeStyle=elbowEdgeStyle;rounded=0;orthogonalLoop=1;jettySize=auto;html=1;exitX=1;exitY=0.5;exitDx=0;exitDy=0;exitPerimeter=0;strokeColor=#FF8000;fontFamily=Courier New;fontSize=17;fontColor=#ff8000;" edge="1" parent="1" source="uWUnNED6HEl2aK5fdaIb-109">
          <mxGeometry relative="1" as="geometry">
            <mxPoint x="1350" y="357" as="targetPoint" />
          </mxGeometry>
        </mxCell>
        <mxCell id="uWUnNED6HEl2aK5fdaIb-109" value="" style="verticalLabelPosition=bottom;verticalAlign=top;html=1;strokeWidth=4;shape=mxgraph.flowchart.on-page_reference;plain-blue;gradientColor=none;strokeColor=#000000;fillColor=#000000;rounded=1;" parent="1" vertex="1">
          <mxGeometry x="1330" y="335.5" width="30" height="30" as="geometry" />
        </mxCell>
        <mxCell id="uWUnNED6HEl2aK5fdaIb-13" value="Systematic style reviews: Tips &amp;amp; Tools for getting from start to finish" style="text;html=1;strokeColor=none;fillColor=none;align=center;verticalAlign=middle;whiteSpace=wrap;overflow=hidden;fontSize=14;fontStyle=1;fontFamily=Courier New;rounded=1;" parent="1" vertex="1">
          <mxGeometry x="-597.76" y="135.75" width="141.62" height="55" as="geometry" />
        </mxCell>
        <mxCell id="uWUnNED6HEl2aK5fdaIb-19" value="" style="verticalLabelPosition=bottom;verticalAlign=top;html=1;strokeWidth=4;shape=mxgraph.flowchart.on-page_reference;strokeColor=#9673a6;fillColor=#e1d5e7;rounded=1;" parent="1" vertex="1">
          <mxGeometry x="-37.57000000000001" y="210.5" width="30" height="30" as="geometry" />
        </mxCell>
        <mxCell id="uWUnNED6HEl2aK5fdaIb-20" value="Systematic style reviews in Health: building a robust search strategy" style="text;html=1;strokeColor=none;fillColor=none;align=left;verticalAlign=middle;whiteSpace=wrap;overflow=hidden;fontSize=14;fontStyle=1;fontFamily=Courier New;rounded=1;" parent="1" vertex="1">
          <mxGeometry x="-668.3700000000001" y="214.25" width="200" height="74.5" as="geometry" />
        </mxCell>
        <mxCell id="uWUnNED6HEl2aK5fdaIb-69" value="" style="verticalLabelPosition=bottom;verticalAlign=top;html=1;strokeWidth=4;shape=mxgraph.flowchart.on-page_reference;plain-purple;gradientColor=none;strokeColor=#000000;fillColor=#D5E8D4;rounded=1;" parent="1" vertex="1">
          <mxGeometry x="-372.43" y="480" width="30" height="30" as="geometry" />
        </mxCell>
        <mxCell id="uWUnNED6HEl2aK5fdaIb-96" value="" style="edgeStyle=elbowEdgeStyle;rounded=1;orthogonalLoop=1;jettySize=auto;html=1;endArrow=none;endFill=0;strokeWidth=4;fontFamily=Courier New;fontColor=#009900;" parent="1" source="uWUnNED6HEl2aK5fdaIb-77" target="uWUnNED6HEl2aK5fdaIb-95" edge="1">
          <mxGeometry relative="1" as="geometry" />
        </mxCell>
        <mxCell id="uWUnNED6HEl2aK5fdaIb-95" value="" style="verticalLabelPosition=bottom;verticalAlign=top;html=1;strokeWidth=4;shape=mxgraph.flowchart.on-page_reference;plain-purple;gradientColor=none;strokeColor=#000000;fillColor=#D5E8D4;rounded=1;" parent="1" vertex="1">
          <mxGeometry x="780" y="297.75" width="30" height="30" as="geometry" />
        </mxCell>
        <mxCell id="uWUnNED6HEl2aK5fdaIb-86" value="Manage your literature research" style="text;html=1;strokeColor=none;fillColor=none;align=left;verticalAlign=middle;whiteSpace=wrap;overflow=hidden;fontSize=14;fontStyle=1;fontFamily=Courier New;rounded=1;" parent="1" vertex="1">
          <mxGeometry x="-232.43" y="267.75" width="110" height="60" as="geometry" />
        </mxCell>
        <mxCell id="uWUnNED6HEl2aK5fdaIb-88" value="Research idea/problem" style="text;html=1;strokeColor=none;fillColor=none;align=left;verticalAlign=middle;whiteSpace=wrap;overflow=hidden;fontSize=14;fontStyle=1;fontColor=#000000;rounded=1;" parent="1" vertex="1">
          <mxGeometry x="-625" y="410.25" width="113.25" height="45" as="geometry" />
        </mxCell>
        <mxCell id="uWUnNED6HEl2aK5fdaIb-90" value="Literature review line" style="text;html=1;strokeColor=none;fillColor=none;align=left;verticalAlign=middle;whiteSpace=wrap;overflow=hidden;fontSize=17;fontStyle=1;fontColor=#EA6B66;rounded=1;" parent="1" vertex="1">
          <mxGeometry x="-597.76" y="95.25" width="176.75" height="27.75" as="geometry" />
        </mxCell>
        <mxCell id="uWUnNED6HEl2aK5fdaIb-107" value="" style="edgeStyle=elbowEdgeStyle;rounded=1;orthogonalLoop=1;jettySize=auto;html=1;endArrow=none;endFill=0;strokeWidth=4;fontFamily=Helvetica;fontColor=default;startArrow=none;strokeColor=#FF8000;fontSize=12;verticalAlign=top;fillColor=#ff8040;gradientColor=none;" parent="1" source="DearfV66aNQ_4xWSn69P-78" target="uWUnNED6HEl2aK5fdaIb-106" edge="1">
          <mxGeometry relative="1" as="geometry" />
        </mxCell>
        <mxCell id="DearfV66aNQ_4xWSn69P-82" style="edgeStyle=elbowEdgeStyle;rounded=1;orthogonalLoop=1;jettySize=auto;html=1;strokeColor=#FF8000;fontFamily=Helvetica;fontSize=12;fontColor=default;endArrow=none;endFill=0;strokeWidth=4;startArrow=none;verticalAlign=top;fillColor=#ff8040;gradientColor=none;exitX=1;exitY=0.5;exitDx=0;exitDy=0;exitPerimeter=0;" edge="1" parent="1" source="uWUnNED6HEl2aK5fdaIb-104">
          <mxGeometry relative="1" as="geometry">
            <mxPoint x="1190" y="300" as="targetPoint" />
            <mxPoint x="1180" y="230" as="sourcePoint" />
          </mxGeometry>
        </mxCell>
        <mxCell id="uWUnNED6HEl2aK5fdaIb-104" value="" style="verticalLabelPosition=bottom;verticalAlign=top;html=1;strokeWidth=4;shape=mxgraph.flowchart.on-page_reference;plain-purple;gradientColor=none;strokeColor=#000000;fillColor=#ff8040;rounded=1;" parent="1" vertex="1">
          <mxGeometry x="1065" y="214.25" width="35" height="36.75" as="geometry" />
        </mxCell>
        <mxCell id="uWUnNED6HEl2aK5fdaIb-115" style="edgeStyle=orthogonalEdgeStyle;curved=1;rounded=1;orthogonalLoop=1;jettySize=auto;html=1;entryX=0;entryY=0.5;entryDx=0;entryDy=0;entryPerimeter=0;endArrow=none;endFill=0;strokeWidth=4;fontFamily=Helvetica;fontColor=default;strokeColor=#FF8000;startArrow=none;fontSize=12;verticalAlign=top;fillColor=#ff8040;gradientColor=none;" parent="1" source="uWUnNED6HEl2aK5fdaIb-106" target="uWUnNED6HEl2aK5fdaIb-109" edge="1">
          <mxGeometry relative="1" as="geometry" />
        </mxCell>
        <mxCell id="uWUnNED6HEl2aK5fdaIb-106" value="" style="verticalLabelPosition=bottom;verticalAlign=top;html=1;strokeWidth=4;shape=mxgraph.flowchart.on-page_reference;plain-purple;gradientColor=none;strokeColor=#000000;fillColor=#ff8040;rounded=1;" parent="1" vertex="1">
          <mxGeometry x="1197.5" y="286" width="30" height="30" as="geometry" />
        </mxCell>
        <UserObject label="GU Research Training opportunities map" link="https://nvie.com/posts/a-successful-git-branching-model/" id="9hBKPDzoitwpIBdzFDQ7-2">
          <mxCell style="text;whiteSpace=wrap;html=1;fontStyle=1;fontSize=16;rounded=1;" parent="1" vertex="1">
            <mxGeometry x="70.75" y="20" width="427.75" height="20" as="geometry" />
          </mxCell>
        </UserObject>
        <mxCell id="9hBKPDzoitwpIBdzFDQ7-15" value="Research output" style="text;html=1;strokeColor=none;fillColor=none;align=left;verticalAlign=middle;whiteSpace=wrap;overflow=hidden;fontSize=14;fontStyle=1;fontColor=#000000;rounded=1;fontFamily=Helvetica;" parent="1" vertex="1">
          <mxGeometry x="1360" y="306" width="120" height="81" as="geometry" />
        </mxCell>
        <mxCell id="DearfV66aNQ_4xWSn69P-24" value="" style="rounded=1;html=1;jettySize=auto;orthogonalLoop=1;plain-blue;endArrow=none;endFill=0;strokeWidth=4;strokeColor=#EA6B66;startArrow=none;edgeStyle=elbowEdgeStyle;" edge="1" parent="1" source="DearfV66aNQ_4xWSn69P-27" target="9hBKPDzoitwpIBdzFDQ7-16">
          <mxGeometry x="292.25" y="211" as="geometry">
            <mxPoint x="310" y="150" as="targetPoint" />
            <mxPoint x="-331.75" y="384" as="sourcePoint" />
          </mxGeometry>
        </mxCell>
        <mxCell id="DearfV66aNQ_4xWSn69P-25" value="" style="rounded=1;html=1;jettySize=auto;orthogonalLoop=1;plain-blue;endArrow=none;endFill=0;strokeWidth=4;strokeColor=#EA6B66;exitX=0.5;exitY=0;exitDx=0;exitDy=0;exitPerimeter=0;entryX=1;entryY=0.75;entryDx=0;entryDy=0;edgeStyle=elbowEdgeStyle;" edge="1" parent="1" source="uWUnNED6HEl2aK5fdaIb-10" target="DearfV66aNQ_4xWSn69P-75">
          <mxGeometry x="292.25" y="211" as="geometry">
            <mxPoint x="310" y="150" as="targetPoint" />
            <mxPoint x="-331.75" y="384" as="sourcePoint" />
          </mxGeometry>
        </mxCell>
        <mxCell id="DearfV66aNQ_4xWSn69P-31" value="Literature search strategies for SQLRs (eResource)" style="text;whiteSpace=wrap;html=1;fontSize=14;fontFamily=Courier New;fontColor=default;align=center;verticalAlign=middle;fontStyle=1;rounded=1;" vertex="1" parent="1">
          <mxGeometry x="-422.43" y="80" width="110" height="90" as="geometry" />
        </mxCell>
        <mxCell id="DearfV66aNQ_4xWSn69P-46" style="rounded=1;orthogonalLoop=1;jettySize=auto;html=1;exitX=0.855;exitY=0.145;exitDx=0;exitDy=0;exitPerimeter=0;entryX=0.5;entryY=1;entryDx=0;entryDy=0;entryPerimeter=0;strokeColor=#EA6B66;fontFamily=Helvetica;fontSize=11;fontColor=default;endArrow=none;gradientColor=#7EA6E0;fillColor=#DAE8FC;endFill=0;strokeWidth=4;" edge="1" parent="1" source="DearfV66aNQ_4xWSn69P-22" target="DearfV66aNQ_4xWSn69P-13">
          <mxGeometry relative="1" as="geometry" />
        </mxCell>
        <mxCell id="DearfV66aNQ_4xWSn69P-50" style="rounded=1;orthogonalLoop=1;jettySize=auto;html=1;entryX=0;entryY=0.5;entryDx=0;entryDy=0;entryPerimeter=0;strokeColor=#EA6B66;fontFamily=Helvetica;fontSize=11;fontColor=default;endArrow=none;gradientColor=#7EA6E0;fillColor=#DAE8FC;endFill=0;strokeWidth=4;startArrow=none;edgeStyle=elbowEdgeStyle;elbow=vertical;" edge="1" parent="1" target="9hBKPDzoitwpIBdzFDQ7-16">
          <mxGeometry relative="1" as="geometry">
            <mxPoint x="-390" y="320" as="sourcePoint" />
          </mxGeometry>
        </mxCell>
        <mxCell id="DearfV66aNQ_4xWSn69P-93" style="rounded=1;orthogonalLoop=1;jettySize=auto;html=1;exitX=0.855;exitY=0.855;exitDx=0;exitDy=0;exitPerimeter=0;entryX=1;entryY=0.25;entryDx=0;entryDy=0;strokeColor=#EA6B66;fontFamily=Helvetica;fontSize=11;fontColor=default;endArrow=none;gradientColor=#7EA6E0;fillColor=#DAE8FC;endFill=0;strokeWidth=4;" edge="1" parent="1" source="DearfV66aNQ_4xWSn69P-22" target="DearfV66aNQ_4xWSn69P-75">
          <mxGeometry relative="1" as="geometry" />
        </mxCell>
        <mxCell id="DearfV66aNQ_4xWSn69P-22" value="" style="verticalLabelPosition=bottom;verticalAlign=top;html=1;strokeWidth=4;shape=mxgraph.flowchart.on-page_reference;plain-blue;gradientColor=#EA6B66;strokeColor=#B85450;fillColor=#F8CECC;rounded=1;" vertex="1" parent="1">
          <mxGeometry x="-470" y="230.5" width="30" height="30" as="geometry" />
        </mxCell>
        <mxCell id="DearfV66aNQ_4xWSn69P-53" value="" style="edgeStyle=elbowEdgeStyle;rounded=1;orthogonalLoop=1;jettySize=auto;html=1;strokeColor=#EA6B66;fontFamily=Helvetica;fontSize=11;fontColor=default;endArrow=none;gradientColor=#7EA6E0;fillColor=#DAE8FC;endFill=0;strokeWidth=4;startArrow=none;" edge="1" parent="1" source="9hBKPDzoitwpIBdzFDQ7-16" target="DearfV66aNQ_4xWSn69P-52">
          <mxGeometry relative="1" as="geometry">
            <mxPoint x="-70" y="240" as="sourcePoint" />
          </mxGeometry>
        </mxCell>
        <mxCell id="9hBKPDzoitwpIBdzFDQ7-16" value="" style="verticalLabelPosition=bottom;verticalAlign=top;html=1;strokeWidth=4;shape=mxgraph.flowchart.on-page_reference;plain-blue;gradientColor=#EA6B66;strokeColor=#B85450;fillColor=#F8CECC;rounded=1;" parent="1" vertex="1">
          <mxGeometry x="-335" y="291.75" width="30" height="30" as="geometry" />
        </mxCell>
        <mxCell id="DearfV66aNQ_4xWSn69P-34" value="Endnote Q&amp;A" style="text;whiteSpace=wrap;html=1;fontSize=14;fontFamily=Courier New;fontColor=default;align=center;verticalAlign=middle;fontStyle=1;rounded=1;" vertex="1" parent="1">
          <mxGeometry x="-392.43" y="321.5" width="120" height="40" as="geometry" />
        </mxCell>
        <mxCell id="DearfV66aNQ_4xWSn69P-37" value="" style="edgeStyle=elbowEdgeStyle;rounded=1;orthogonalLoop=1;jettySize=auto;html=1;fontSize=11;endArrow=none;endFill=0;strokeWidth=4;entryX=0;entryY=0.5;entryDx=0;entryDy=0;entryPerimeter=0;fillColor=#DAE8FC;strokeColor=#EA6B66;gradientColor=#7EA6E0;startArrow=none;" edge="1" parent="1" source="9hBKPDzoitwpIBdzFDQ7-16" target="DearfV66aNQ_4xWSn69P-35">
          <mxGeometry relative="1" as="geometry">
            <mxPoint x="650" y="120" as="targetPoint" />
            <mxPoint x="-15" y="210" as="sourcePoint" />
          </mxGeometry>
        </mxCell>
        <mxCell id="DearfV66aNQ_4xWSn69P-35" value="" style="verticalLabelPosition=bottom;verticalAlign=top;html=1;strokeWidth=4;shape=mxgraph.flowchart.on-page_reference;plain-blue;gradientColor=#EA6B66;strokeColor=#B85450;fillColor=#F8CECC;rounded=1;" vertex="1" parent="1">
          <mxGeometry x="-210" y="241" width="30" height="30" as="geometry" />
        </mxCell>
        <mxCell id="DearfV66aNQ_4xWSn69P-48" style="rounded=1;orthogonalLoop=1;jettySize=auto;html=1;exitX=1;exitY=0.5;exitDx=0;exitDy=0;exitPerimeter=0;entryX=0.145;entryY=0.145;entryDx=0;entryDy=0;entryPerimeter=0;strokeColor=#EA6B66;fontFamily=Helvetica;fontSize=11;fontColor=default;endArrow=none;gradientColor=#7EA6E0;fillColor=#DAE8FC;endFill=0;strokeWidth=4;edgeStyle=elbowEdgeStyle;" edge="1" parent="1" source="DearfV66aNQ_4xWSn69P-13" target="DearfV66aNQ_4xWSn69P-27">
          <mxGeometry relative="1" as="geometry" />
        </mxCell>
        <mxCell id="DearfV66aNQ_4xWSn69P-13" value="" style="verticalLabelPosition=bottom;verticalAlign=top;html=1;strokeWidth=4;shape=mxgraph.flowchart.on-page_reference;plain-blue;gradientColor=#EA6B66;strokeColor=#B85450;fillColor=#F8CECC;rounded=1;" vertex="1" parent="1">
          <mxGeometry x="-440" y="178.25" width="30" height="30" as="geometry" />
        </mxCell>
        <mxCell id="DearfV66aNQ_4xWSn69P-27" value="" style="verticalLabelPosition=bottom;verticalAlign=top;html=1;strokeWidth=4;shape=mxgraph.flowchart.on-page_reference;plain-blue;gradientColor=#EA6B66;strokeColor=#B85450;fillColor=#F8CECC;rounded=1;" vertex="1" parent="1">
          <mxGeometry x="-352.43" y="180.5" width="30" height="30" as="geometry" />
        </mxCell>
        <mxCell id="DearfV66aNQ_4xWSn69P-57" style="edgeStyle=elbowEdgeStyle;rounded=1;orthogonalLoop=1;jettySize=auto;html=1;exitX=1;exitY=0.5;exitDx=0;exitDy=0;exitPerimeter=0;entryX=0.145;entryY=0.145;entryDx=0;entryDy=0;entryPerimeter=0;strokeColor=#EA6B66;fontFamily=Helvetica;fontSize=11;fontColor=default;endArrow=none;gradientColor=#7EA6E0;fillColor=#DAE8FC;endFill=0;strokeWidth=4;startArrow=none;" edge="1" parent="1" source="DearfV66aNQ_4xWSn69P-52" target="DearfV66aNQ_4xWSn69P-35">
          <mxGeometry relative="1" as="geometry" />
        </mxCell>
        <mxCell id="DearfV66aNQ_4xWSn69P-52" value="" style="verticalLabelPosition=bottom;verticalAlign=top;html=1;strokeWidth=4;shape=mxgraph.flowchart.on-page_reference;plain-blue;gradientColor=#EA6B66;strokeColor=#B85450;fillColor=#F8CECC;rounded=1;" vertex="1" parent="1">
          <mxGeometry x="-260" y="168" width="30" height="30" as="geometry" />
        </mxCell>
        <mxCell id="DearfV66aNQ_4xWSn69P-59" value="Writing the literature review" style="text;html=1;strokeColor=none;fillColor=none;align=left;verticalAlign=middle;whiteSpace=wrap;overflow=hidden;fontSize=14;fontStyle=1;fontFamily=Courier New;rounded=1;" vertex="1" parent="1">
          <mxGeometry y="160.5" width="110" height="60" as="geometry" />
        </mxCell>
        <mxCell id="DearfV66aNQ_4xWSn69P-62" value="" style="edgeStyle=orthogonalEdgeStyle;curved=1;rounded=1;orthogonalLoop=1;jettySize=auto;html=1;endArrow=none;endFill=0;strokeWidth=4;entryX=0;entryY=0.5;entryDx=0;entryDy=0;entryPerimeter=0;fontSize=12;verticalAlign=top;fillColor=#e1d5e7;strokeColor=#9673a6;gradientColor=#EA6B66;" edge="1" parent="1" source="uWUnNED6HEl2aK5fdaIb-19" target="DearfV66aNQ_4xWSn69P-60">
          <mxGeometry relative="1" as="geometry">
            <mxPoint x="1150" y="325" as="targetPoint" />
            <mxPoint x="550" y="281" as="sourcePoint" />
          </mxGeometry>
        </mxCell>
        <mxCell id="DearfV66aNQ_4xWSn69P-60" value="" style="verticalLabelPosition=bottom;verticalAlign=top;html=1;strokeWidth=4;shape=mxgraph.flowchart.on-page_reference;strokeColor=#9673a6;fillColor=#e1d5e7;rounded=1;" vertex="1" parent="1">
          <mxGeometry x="660" y="130.5" width="30" height="30" as="geometry" />
        </mxCell>
        <mxCell id="DearfV66aNQ_4xWSn69P-63" value="Writing the methods &amp;amp; methodology section" style="text;html=1;strokeColor=none;fillColor=none;align=left;verticalAlign=middle;whiteSpace=wrap;overflow=hidden;fontSize=14;fontStyle=1;fontFamily=Courier New;rounded=1;" vertex="1" parent="1">
          <mxGeometry x="640" y="60" width="110" height="70.5" as="geometry" />
        </mxCell>
        <mxCell id="DearfV66aNQ_4xWSn69P-66" value="" style="edgeStyle=entityRelationEdgeStyle;rounded=1;orthogonalLoop=1;jettySize=auto;html=1;endArrow=none;endFill=0;strokeWidth=4;entryX=0;entryY=0.5;entryDx=0;entryDy=0;entryPerimeter=0;fontSize=12;verticalAlign=top;fillColor=#e1d5e7;strokeColor=#9673a6;gradientColor=#EA6B66;startArrow=none;" edge="1" parent="1" source="DearfV66aNQ_4xWSn69P-60" target="DearfV66aNQ_4xWSn69P-64">
          <mxGeometry relative="1" as="geometry">
            <mxPoint x="1150" y="325" as="targetPoint" />
            <mxPoint x="726.75" y="286" as="sourcePoint" />
          </mxGeometry>
        </mxCell>
        <mxCell id="DearfV66aNQ_4xWSn69P-64" value="" style="verticalLabelPosition=bottom;verticalAlign=top;html=1;strokeWidth=4;shape=mxgraph.flowchart.on-page_reference;strokeColor=#9673a6;fillColor=#e1d5e7;rounded=1;" vertex="1" parent="1">
          <mxGeometry x="770" y="148.25" width="30" height="30" as="geometry" />
        </mxCell>
        <mxCell id="DearfV66aNQ_4xWSn69P-67" value="Improve the tone and style of your academic writing" style="text;html=1;strokeColor=none;fillColor=none;align=left;verticalAlign=middle;whiteSpace=wrap;overflow=hidden;fontSize=14;fontStyle=1;fontFamily=Courier New;rounded=1;" vertex="1" parent="1">
          <mxGeometry x="790" y="49.75" width="130" height="91" as="geometry" />
        </mxCell>
        <mxCell id="DearfV66aNQ_4xWSn69P-70" value="" style="edgeStyle=orthogonalEdgeStyle;curved=1;rounded=1;orthogonalLoop=1;jettySize=auto;html=1;endArrow=none;endFill=0;strokeWidth=4;entryX=0;entryY=0.5;entryDx=0;entryDy=0;entryPerimeter=0;fontSize=12;verticalAlign=top;fillColor=#e1d5e7;strokeColor=#9673a6;gradientColor=#EA6B66;startArrow=none;" edge="1" parent="1" source="DearfV66aNQ_4xWSn69P-64" target="DearfV66aNQ_4xWSn69P-69">
          <mxGeometry relative="1" as="geometry">
            <mxPoint x="1150" y="325" as="targetPoint" />
            <mxPoint x="860" y="291" as="sourcePoint" />
          </mxGeometry>
        </mxCell>
        <mxCell id="DearfV66aNQ_4xWSn69P-69" value="" style="verticalLabelPosition=bottom;verticalAlign=top;html=1;strokeWidth=4;shape=mxgraph.flowchart.on-page_reference;strokeColor=#9673a6;fillColor=#e1d5e7;rounded=1;" vertex="1" parent="1">
          <mxGeometry x="900" y="178.25" width="30" height="30" as="geometry" />
        </mxCell>
        <mxCell id="DearfV66aNQ_4xWSn69P-71" value="Convey the argument in academic writing" style="text;html=1;strokeColor=none;fillColor=none;align=left;verticalAlign=middle;whiteSpace=wrap;overflow=hidden;fontSize=14;fontStyle=1;fontFamily=Courier New;rounded=1;" vertex="1" parent="1">
          <mxGeometry x="880" y="109" width="130" height="91" as="geometry" />
        </mxCell>
        <mxCell id="DearfV66aNQ_4xWSn69P-73" value="" style="verticalLabelPosition=bottom;verticalAlign=top;html=1;strokeWidth=4;shape=mxgraph.flowchart.on-page_reference;plain-blue;gradientColor=#EA6B66;strokeColor=#B85450;fillColor=#F8CECC;rounded=1;" vertex="1" parent="1">
          <mxGeometry x="-422.43" y="306" width="30" height="30" as="geometry" />
        </mxCell>
        <mxCell id="DearfV66aNQ_4xWSn69P-75" value="PRISM" style="text;html=1;strokeColor=none;fillColor=none;align=left;verticalAlign=middle;whiteSpace=wrap;overflow=hidden;fontSize=14;fontStyle=1;fontFamily=Courier New;rounded=1;" vertex="1" parent="1">
          <mxGeometry x="-480" y="310" width="70" height="26.75" as="geometry" />
        </mxCell>
        <mxCell id="DearfV66aNQ_4xWSn69P-76" value="Publishing during your PhD" style="text;html=1;strokeColor=none;fillColor=none;align=left;verticalAlign=middle;whiteSpace=wrap;overflow=hidden;fontSize=14;fontStyle=1;fontFamily=Courier New;rounded=1;" vertex="1" parent="1">
          <mxGeometry x="1060" y="144" width="100" height="66.5" as="geometry" />
        </mxCell>
        <mxCell id="DearfV66aNQ_4xWSn69P-77" value="Navigating the Publishing Maze " style="text;html=1;strokeColor=none;fillColor=none;align=left;verticalAlign=middle;whiteSpace=wrap;overflow=hidden;fontSize=14;fontStyle=1;fontFamily=Courier New;rounded=1;" vertex="1" parent="1">
          <mxGeometry x="1180.81" y="241" width="130" height="55" as="geometry" />
        </mxCell>
        <mxCell id="DearfV66aNQ_4xWSn69P-79" value="" style="edgeStyle=elbowEdgeStyle;rounded=1;orthogonalLoop=1;jettySize=auto;html=1;endArrow=none;endFill=0;strokeWidth=4;fontFamily=Helvetica;fontColor=default;strokeColor=#FF8000;startArrow=none;fontSize=12;verticalAlign=top;fillColor=#ff8040;gradientColor=none;" edge="1" parent="1" source="uWUnNED6HEl2aK5fdaIb-104" target="DearfV66aNQ_4xWSn69P-78">
          <mxGeometry relative="1" as="geometry">
            <mxPoint x="920" y="349" as="sourcePoint" />
            <mxPoint x="1260" y="356.5" as="targetPoint" />
          </mxGeometry>
        </mxCell>
        <mxCell id="DearfV66aNQ_4xWSn69P-125" style="edgeStyle=elbowEdgeStyle;rounded=1;orthogonalLoop=1;jettySize=auto;html=1;exitX=1;exitY=0.5;exitDx=0;exitDy=0;exitPerimeter=0;strokeColor=#FF8000;fontFamily=Helvetica;fontSize=12;fontColor=default;endArrow=none;verticalAlign=top;endFill=0;strokeWidth=4;startArrow=none;fillColor=#ff8040;gradientColor=none;entryX=0;entryY=0.5;entryDx=0;entryDy=0;entryPerimeter=0;" edge="1" parent="1" source="DearfV66aNQ_4xWSn69P-78" target="DearfV66aNQ_4xWSn69P-124">
          <mxGeometry relative="1" as="geometry">
            <mxPoint x="1040" y="380" as="targetPoint" />
          </mxGeometry>
        </mxCell>
        <mxCell id="DearfV66aNQ_4xWSn69P-78" value="" style="verticalLabelPosition=bottom;verticalAlign=top;html=1;strokeWidth=4;shape=mxgraph.flowchart.on-page_reference;plain-purple;gradientColor=none;strokeColor=#000000;fillColor=#ff8040;rounded=1;" vertex="1" parent="1">
          <mxGeometry x="900" y="286" width="30" height="30" as="geometry" />
        </mxCell>
        <mxCell id="DearfV66aNQ_4xWSn69P-87" value="External Research Datasets" style="text;html=1;strokeColor=none;fillColor=none;align=left;verticalAlign=middle;whiteSpace=wrap;overflow=hidden;fontSize=14;fontStyle=1;fontFamily=Courier New;rounded=1;" vertex="1" parent="1">
          <mxGeometry x="-304.99999999999994" y="391" width="110" height="74.5" as="geometry" />
        </mxCell>
        <mxCell id="DearfV66aNQ_4xWSn69P-89" value="" style="edgeStyle=elbowEdgeStyle;rounded=1;orthogonalLoop=1;jettySize=auto;html=1;endArrow=none;endFill=0;strokeWidth=4;startArrow=none;" edge="1" parent="1" source="DearfV66aNQ_4xWSn69P-165">
          <mxGeometry relative="1" as="geometry">
            <mxPoint x="120" y="500" as="sourcePoint" />
            <mxPoint x="-480" y="440" as="targetPoint" />
          </mxGeometry>
        </mxCell>
        <mxCell id="DearfV66aNQ_4xWSn69P-86" value="Managing your research data" style="text;html=1;strokeColor=none;fillColor=none;align=left;verticalAlign=middle;whiteSpace=wrap;overflow=hidden;fontSize=14;fontStyle=1;fontFamily=Courier New;rounded=1;" vertex="1" parent="1">
          <mxGeometry x="-426.14" y="425" width="110" height="60" as="geometry" />
        </mxCell>
        <mxCell id="DearfV66aNQ_4xWSn69P-97" value="" style="verticalLabelPosition=bottom;verticalAlign=top;html=1;strokeWidth=4;shape=mxgraph.flowchart.on-page_reference;plain-purple;gradientColor=none;strokeColor=#000000;fillColor=#D5E8D4;rounded=1;" vertex="1" parent="1">
          <mxGeometry x="-284.86" y="365.5" width="30" height="30" as="geometry" />
        </mxCell>
        <mxCell id="DearfV66aNQ_4xWSn69P-105" value="" style="endArrow=none;html=1;rounded=1;strokeColor=default;fontFamily=Helvetica;fontSize=11;fontColor=default;align=center;fillColor=none;gradientColor=none;fontStyle=1;endFill=0;strokeWidth=4;edgeStyle=elbowEdgeStyle;startArrow=none;entryX=1;entryY=0.5;entryDx=0;entryDy=0;entryPerimeter=0;" edge="1" parent="1" target="DearfV66aNQ_4xWSn69P-97">
          <mxGeometry width="50" height="50" relative="1" as="geometry">
            <mxPoint x="-210" y="495" as="sourcePoint" />
            <mxPoint x="-254.86000000000013" y="399.75" as="targetPoint" />
            <Array as="points">
              <mxPoint x="-230" y="445" />
            </Array>
          </mxGeometry>
        </mxCell>
        <mxCell id="DearfV66aNQ_4xWSn69P-109" value="Reproducible research: building business continuity" style="text;html=1;strokeColor=none;fillColor=none;align=left;verticalAlign=middle;whiteSpace=wrap;overflow=hidden;fontSize=14;fontStyle=1;fontFamily=Courier New;rounded=1;" vertex="1" parent="1">
          <mxGeometry x="-202.43" y="373.5" width="102.43" height="96" as="geometry" />
        </mxCell>
        <mxCell id="DearfV66aNQ_4xWSn69P-110" value="Working with sensitive data" style="text;html=1;strokeColor=none;fillColor=none;align=left;verticalAlign=middle;whiteSpace=wrap;overflow=hidden;fontSize=14;fontStyle=1;fontFamily=Courier New;rounded=1;" vertex="1" parent="1">
          <mxGeometry x="-375" y="580" width="110" height="74.5" as="geometry" />
        </mxCell>
        <mxCell id="DearfV66aNQ_4xWSn69P-111" value="" style="verticalLabelPosition=bottom;verticalAlign=top;html=1;strokeWidth=4;shape=mxgraph.flowchart.on-page_reference;plain-purple;gradientColor=none;strokeColor=#000000;fillColor=#D5E8D4;rounded=1;" vertex="1" parent="1">
          <mxGeometry x="-335" y="557.75" width="30" height="30" as="geometry" />
        </mxCell>
        <mxCell id="DearfV66aNQ_4xWSn69P-118" value="Data organisation in spreadsheets for researchers" style="text;html=1;strokeColor=none;fillColor=none;align=left;verticalAlign=middle;whiteSpace=wrap;overflow=hidden;fontSize=14;fontStyle=1;fontFamily=Courier New;rounded=1;" vertex="1" parent="1">
          <mxGeometry x="-49.99999999999999" y="319.37" width="160" height="102.88" as="geometry" />
        </mxCell>
        <mxCell id="DearfV66aNQ_4xWSn69P-80" value="Copyright &amp;amp; OA considerations" style="text;html=1;strokeColor=none;fillColor=none;align=left;verticalAlign=middle;whiteSpace=wrap;overflow=hidden;fontSize=14;fontStyle=1;fontFamily=Courier New;rounded=1;" vertex="1" parent="1">
          <mxGeometry x="850" y="297" width="130" height="90" as="geometry" />
        </mxCell>
        <mxCell id="DearfV66aNQ_4xWSn69P-124" value="" style="verticalLabelPosition=bottom;verticalAlign=top;html=1;strokeWidth=4;shape=mxgraph.flowchart.on-page_reference;plain-purple;gradientColor=none;strokeColor=#000000;fillColor=#ff8040;rounded=1;" vertex="1" parent="1">
          <mxGeometry x="1050" y="343.5" width="30" height="30" as="geometry" />
        </mxCell>
        <mxCell id="DearfV66aNQ_4xWSn69P-126" style="edgeStyle=elbowEdgeStyle;rounded=1;orthogonalLoop=1;jettySize=auto;html=1;strokeColor=#FF8000;fontFamily=Helvetica;fontSize=12;fontColor=default;endArrow=none;verticalAlign=top;endFill=0;strokeWidth=4;startArrow=none;fillColor=#ff8040;gradientColor=none;entryX=1;entryY=0.5;entryDx=0;entryDy=0;entryPerimeter=0;" edge="1" parent="1" target="DearfV66aNQ_4xWSn69P-124">
          <mxGeometry relative="1" as="geometry">
            <mxPoint x="1120" y="398" as="targetPoint" />
            <mxPoint x="1190" y="301" as="sourcePoint" />
          </mxGeometry>
        </mxCell>
        <mxCell id="DearfV66aNQ_4xWSn69P-127" value="Formatting your Thesis Q&amp;amp;A" style="text;html=1;strokeColor=none;fillColor=none;align=left;verticalAlign=middle;whiteSpace=wrap;overflow=hidden;fontSize=14;fontStyle=1;fontFamily=Courier New;rounded=1;" vertex="1" parent="1">
          <mxGeometry x="1017.5" y="367.25" width="130" height="55" as="geometry" />
        </mxCell>
        <mxCell id="DearfV66aNQ_4xWSn69P-84" value="Publishing Line" style="text;html=1;strokeColor=none;fillColor=none;align=center;verticalAlign=top;whiteSpace=wrap;overflow=hidden;fontSize=17;fontStyle=1;rounded=1;fontColor=#ff8000;labelBackgroundColor=default;endArrow=none;endFill=0;strokeWidth=4;startArrow=none;" vertex="1" parent="1">
          <mxGeometry x="1150" y="206.75" width="191.62" height="45" as="geometry" />
        </mxCell>
        <mxCell id="DearfV66aNQ_4xWSn69P-129" value="Data visualisation" style="text;html=1;strokeColor=none;fillColor=none;align=left;verticalAlign=middle;whiteSpace=wrap;overflow=hidden;fontSize=14;fontStyle=1;fontFamily=Courier New;rounded=1;" vertex="1" parent="1">
          <mxGeometry x="770" y="235.5" width="110" height="74.5" as="geometry" />
        </mxCell>
        <mxCell id="DearfV66aNQ_4xWSn69P-130" style="edgeStyle=elbowEdgeStyle;rounded=1;orthogonalLoop=1;jettySize=auto;html=1;exitX=0;exitY=0.5;exitDx=0;exitDy=0;strokeColor=#FF8000;fontFamily=Helvetica;fontSize=12;fontColor=default;endArrow=none;verticalAlign=top;endFill=0;strokeWidth=4;startArrow=none;fillColor=#ff8040;gradientColor=none;exitPerimeter=0;" edge="1" parent="1" source="DearfV66aNQ_4xWSn69P-78">
          <mxGeometry relative="1" as="geometry">
            <mxPoint x="810" y="310" as="targetPoint" />
            <mxPoint x="950" y="310" as="sourcePoint" />
          </mxGeometry>
        </mxCell>
        <mxCell id="DearfV66aNQ_4xWSn69P-132" value="" style="edgeStyle=orthogonalEdgeStyle;curved=1;rounded=1;orthogonalLoop=1;jettySize=auto;html=1;entryX=0;entryY=0.5;entryDx=0;entryDy=0;entryPerimeter=0;endArrow=none;endFill=0;strokeWidth=4;fontFamily=Courier New;fontColor=#009900;startArrow=none;" edge="1" parent="1" target="uWUnNED6HEl2aK5fdaIb-77">
          <mxGeometry relative="1" as="geometry">
            <mxPoint x="590" y="360" as="sourcePoint" />
            <mxPoint x="880" y="351" as="targetPoint" />
          </mxGeometry>
        </mxCell>
        <mxCell id="uWUnNED6HEl2aK5fdaIb-77" value="" style="verticalLabelPosition=bottom;verticalAlign=top;html=1;strokeWidth=4;shape=mxgraph.flowchart.on-page_reference;plain-purple;gradientColor=none;strokeColor=#000000;fillColor=#D5E8D4;rounded=1;" parent="1" vertex="1">
          <mxGeometry x="680" y="331.5" width="30" height="30" as="geometry" />
        </mxCell>
        <mxCell id="DearfV66aNQ_4xWSn69P-136" value="Data Storytelling" style="text;html=1;strokeColor=none;fillColor=none;align=left;verticalAlign=middle;whiteSpace=wrap;overflow=hidden;fontSize=14;fontStyle=1;fontFamily=Courier New;rounded=1;" vertex="1" parent="1">
          <mxGeometry x="645" y="265.5" width="100" height="74.5" as="geometry" />
        </mxCell>
        <mxCell id="DearfV66aNQ_4xWSn69P-139" value="Working with data line" style="text;html=1;strokeColor=none;fillColor=none;align=center;verticalAlign=top;whiteSpace=wrap;overflow=hidden;fontSize=17;fontStyle=1;rounded=1;labelBackgroundColor=default;endArrow=none;endFill=0;strokeWidth=4;startArrow=none;fontColor=#b6f3d9;" vertex="1" parent="1">
          <mxGeometry x="-518.65" y="640" width="222.43" height="50" as="geometry" />
        </mxCell>
        <mxCell id="uWUnNED6HEl2aK5fdaIb-84" value="" style="verticalLabelPosition=bottom;verticalAlign=top;html=1;strokeWidth=4;shape=mxgraph.flowchart.on-page_reference;strokeColor=#6c8ebf;fillColor=#dae8fc;rounded=1;" parent="1" vertex="1">
          <mxGeometry x="150" y="587.75" width="30" height="30" as="geometry" />
        </mxCell>
        <mxCell id="DearfV66aNQ_4xWSn69P-141" value="&lt;font color=&quot;#A680B8&quot;&gt;Writing line&lt;/font&gt;" style="text;html=1;strokeColor=none;fillColor=none;align=center;verticalAlign=top;whiteSpace=wrap;overflow=hidden;fontSize=17;fontStyle=1;rounded=1;fontColor=#ff8000;labelBackgroundColor=default;endArrow=none;endFill=0;strokeWidth=4;startArrow=none;" vertex="1" parent="1">
          <mxGeometry x="240" y="123" width="191.62" height="45" as="geometry" />
        </mxCell>
        <mxCell id="DearfV66aNQ_4xWSn69P-142" value="Introduction to REDCap " style="text;html=1;strokeColor=none;fillColor=none;align=left;verticalAlign=middle;whiteSpace=wrap;overflow=hidden;fontSize=14;fontStyle=1;fontFamily=Courier New;rounded=1;" vertex="1" parent="1">
          <mxGeometry x="391.62" y="564.5" width="110" height="50" as="geometry" />
        </mxCell>
        <mxCell id="DearfV66aNQ_4xWSn69P-143" value="" style="verticalLabelPosition=bottom;verticalAlign=top;html=1;strokeWidth=4;shape=mxgraph.flowchart.on-page_reference;strokeColor=#6c8ebf;fillColor=#dae8fc;rounded=1;" vertex="1" parent="1">
          <mxGeometry x="420" y="610" width="30" height="30" as="geometry" />
        </mxCell>
        <mxCell id="DearfV66aNQ_4xWSn69P-153" style="edgeStyle=elbowEdgeStyle;rounded=0;orthogonalLoop=1;jettySize=auto;html=1;exitX=0;exitY=0.75;exitDx=0;exitDy=0;strokeColor=#33001A;fontFamily=Courier New;fontSize=17;fontColor=#A680B8;" edge="1" parent="1" source="DearfV66aNQ_4xWSn69P-110" target="DearfV66aNQ_4xWSn69P-110">
          <mxGeometry relative="1" as="geometry" />
        </mxCell>
        <mxCell id="DearfV66aNQ_4xWSn69P-162" value="NVIVO" style="text;html=1;strokeColor=none;fillColor=none;align=left;verticalAlign=middle;whiteSpace=wrap;overflow=hidden;fontSize=14;fontStyle=1;fontFamily=Courier New;rounded=1;" vertex="1" parent="1">
          <mxGeometry x="448.5" y="720" width="50" height="50" as="geometry" />
        </mxCell>
        <mxCell id="DearfV66aNQ_4xWSn69P-164" value="" style="edgeStyle=elbowEdgeStyle;rounded=1;orthogonalLoop=1;jettySize=auto;html=1;endArrow=none;endFill=0;strokeWidth=4;startArrow=none;fontSize=12;verticalAlign=top;fillColor=#dae8fc;strokeColor=#33001A;entryX=1;entryY=0.5;entryDx=0;entryDy=0;entryPerimeter=0;" edge="1" parent="1" source="DearfV66aNQ_4xWSn69P-143" target="DearfV66aNQ_4xWSn69P-192">
          <mxGeometry relative="1" as="geometry">
            <mxPoint x="265" y="540" as="sourcePoint" />
            <mxPoint x="310" y="500" as="targetPoint" />
            <Array as="points">
              <mxPoint x="470" y="570" />
              <mxPoint x="370" y="410" />
              <mxPoint x="310" y="350" />
            </Array>
          </mxGeometry>
        </mxCell>
        <mxCell id="DearfV66aNQ_4xWSn69P-169" value="" style="endArrow=none;html=1;rounded=1;strokeColor=default;fontFamily=Helvetica;fontSize=11;fontColor=default;align=center;fillColor=none;gradientColor=none;fontStyle=1;endFill=0;strokeWidth=4;edgeStyle=elbowEdgeStyle;entryX=1;entryY=0.5;entryDx=0;entryDy=0;entryPerimeter=0;exitX=0.5;exitY=0;exitDx=0;exitDy=0;exitPerimeter=0;" edge="1" parent="1" source="DearfV66aNQ_4xWSn69P-172" target="DearfV66aNQ_4xWSn69P-165">
          <mxGeometry width="50" height="50" relative="1" as="geometry">
            <mxPoint x="-330" y="530" as="sourcePoint" />
            <mxPoint x="-365.97" y="425.08" as="targetPoint" />
          </mxGeometry>
        </mxCell>
        <mxCell id="DearfV66aNQ_4xWSn69P-170" value="" style="edgeStyle=elbowEdgeStyle;rounded=1;orthogonalLoop=1;jettySize=auto;html=1;entryX=0.748;entryY=0.5;entryDx=0;entryDy=0;entryPerimeter=0;endArrow=none;endFill=0;strokeWidth=4;" edge="1" parent="1" source="uWUnNED6HEl2aK5fdaIb-69" target="DearfV66aNQ_4xWSn69P-165">
          <mxGeometry relative="1" as="geometry">
            <mxPoint x="-120" y="425" as="sourcePoint" />
            <mxPoint x="-410" y="425" as="targetPoint" />
          </mxGeometry>
        </mxCell>
        <mxCell id="DearfV66aNQ_4xWSn69P-171" value="Research integrity foundations" style="text;html=1;strokeColor=none;fillColor=none;align=left;verticalAlign=middle;whiteSpace=wrap;overflow=hidden;fontSize=14;fontStyle=1;fontFamily=Courier New;rounded=1;" vertex="1" parent="1">
          <mxGeometry x="-558.0999999999999" y="465.5" width="97.43" height="74.5" as="geometry" />
        </mxCell>
        <mxCell id="DearfV66aNQ_4xWSn69P-172" value="" style="verticalLabelPosition=bottom;verticalAlign=top;html=1;strokeWidth=4;shape=mxgraph.flowchart.on-page_reference;strokeColor=#0e8088;fillColor=#b0e3e6;rounded=1;" vertex="1" parent="1">
          <mxGeometry x="-452.43" y="557.75" width="30" height="30" as="geometry" />
        </mxCell>
        <mxCell id="DearfV66aNQ_4xWSn69P-173" value="Animal ethics" style="text;html=1;strokeColor=none;fillColor=none;align=left;verticalAlign=middle;whiteSpace=wrap;overflow=hidden;fontSize=14;fontStyle=1;fontFamily=Courier New;rounded=1;" vertex="1" parent="1">
          <mxGeometry x="-480" y="570" width="97.43" height="70" as="geometry" />
        </mxCell>
        <mxCell id="DearfV66aNQ_4xWSn69P-174" value="" style="endArrow=none;html=1;rounded=1;strokeColor=default;fontFamily=Helvetica;fontSize=11;fontColor=default;align=center;fillColor=none;gradientColor=none;fontStyle=1;endFill=0;strokeWidth=4;edgeStyle=elbowEdgeStyle;exitX=1;exitY=0.5;exitDx=0;exitDy=0;exitPerimeter=0;entryX=0;entryY=0.5;entryDx=0;entryDy=0;entryPerimeter=0;" edge="1" parent="1" source="DearfV66aNQ_4xWSn69P-172" target="uWUnNED6HEl2aK5fdaIb-69">
          <mxGeometry width="50" height="50" relative="1" as="geometry">
            <mxPoint x="-172.57999999999976" y="510" as="sourcePoint" />
            <mxPoint x="-380" y="500" as="targetPoint" />
          </mxGeometry>
        </mxCell>
        <mxCell id="DearfV66aNQ_4xWSn69P-177" value="" style="verticalLabelPosition=bottom;verticalAlign=top;html=1;strokeWidth=4;shape=mxgraph.flowchart.on-page_reference;plain-blue;gradientColor=#EA6B66;strokeColor=#B85450;fillColor=#F8CECC;rounded=1;" vertex="1" parent="1">
          <mxGeometry x="-130" y="184.25" width="30" height="30" as="geometry" />
        </mxCell>
        <mxCell id="DearfV66aNQ_4xWSn69P-178" value="" style="edgeStyle=elbowEdgeStyle;rounded=1;orthogonalLoop=1;jettySize=auto;html=1;fontSize=11;endArrow=none;endFill=0;strokeWidth=4;entryX=0;entryY=0.5;entryDx=0;entryDy=0;entryPerimeter=0;fillColor=#DAE8FC;strokeColor=#EA6B66;gradientColor=#7EA6E0;startArrow=none;" edge="1" parent="1" target="DearfV66aNQ_4xWSn69P-177">
          <mxGeometry relative="1" as="geometry">
            <mxPoint x="-80" y="223.75" as="targetPoint" />
            <mxPoint x="-185" y="257.75" as="sourcePoint" />
          </mxGeometry>
        </mxCell>
        <mxCell id="DearfV66aNQ_4xWSn69P-179" value="Organising literature for&lt;br&gt;&amp;nbsp;Systematic &lt;br&gt;Quantitative Literature &lt;br&gt;Reviews (SQLR)" style="text;whiteSpace=wrap;html=1;fontSize=14;fontFamily=Courier New;fontColor=default;align=center;verticalAlign=middle;fontStyle=1;rounded=1;" vertex="1" parent="1">
          <mxGeometry x="-312.43" y="70.5" width="140" height="90" as="geometry" />
        </mxCell>
        <mxCell id="DearfV66aNQ_4xWSn69P-180" value="Visualise your literature review with VosViewer (eResource)" style="text;whiteSpace=wrap;html=1;fontSize=14;fontFamily=Courier New;fontColor=default;align=center;verticalAlign=middle;fontStyle=1;rounded=1;" vertex="1" parent="1">
          <mxGeometry x="-160" y="90.5" width="140" height="90" as="geometry" />
        </mxCell>
        <mxCell id="DearfV66aNQ_4xWSn69P-181" value="" style="edgeStyle=elbowEdgeStyle;rounded=1;orthogonalLoop=1;jettySize=auto;html=1;endArrow=none;endFill=0;strokeWidth=4;entryX=1;entryY=0.5;entryDx=0;entryDy=0;entryPerimeter=0;fontSize=12;verticalAlign=top;fillColor=#e1d5e7;strokeColor=#9673a6;gradientColor=#EA6B66;exitX=0;exitY=0.5;exitDx=0;exitDy=0;exitPerimeter=0;" edge="1" parent="1" source="uWUnNED6HEl2aK5fdaIb-19" target="DearfV66aNQ_4xWSn69P-177">
          <mxGeometry relative="1" as="geometry">
            <mxPoint x="670" y="155.5" as="targetPoint" />
            <mxPoint x="2.4299999999998363" y="235.5" as="sourcePoint" />
          </mxGeometry>
        </mxCell>
        <mxCell id="DearfV66aNQ_4xWSn69P-182" value="" style="edgeStyle=elbowEdgeStyle;rounded=1;orthogonalLoop=1;jettySize=auto;html=1;endArrow=none;endFill=0;strokeWidth=4;fontSize=12;verticalAlign=top;fillColor=#e1d5e7;strokeColor=#9673a6;gradientColor=#EA6B66;exitX=0;exitY=0.5;exitDx=0;exitDy=0;exitPerimeter=0;" edge="1" parent="1" source="uWUnNED6HEl2aK5fdaIb-19">
          <mxGeometry relative="1" as="geometry">
            <mxPoint x="-180" y="260" as="targetPoint" />
            <mxPoint x="-27.570000000000164" y="235.5" as="sourcePoint" />
          </mxGeometry>
        </mxCell>
        <mxCell id="DearfV66aNQ_4xWSn69P-184" style="edgeStyle=elbowEdgeStyle;rounded=0;orthogonalLoop=1;jettySize=auto;html=1;exitX=0.5;exitY=0;exitDx=0;exitDy=0;strokeColor=#33001A;fontFamily=Courier New;fontSize=17;fontColor=#000000;" edge="1" parent="1" source="DearfV66aNQ_4xWSn69P-162" target="DearfV66aNQ_4xWSn69P-162">
          <mxGeometry relative="1" as="geometry" />
        </mxCell>
        <mxCell id="DearfV66aNQ_4xWSn69P-186" value="" style="verticalLabelPosition=bottom;verticalAlign=middle;html=1;strokeWidth=4;shape=mxgraph.flowchart.on-page_reference;strokeColor=#CC0000;fillColor=#FFCCCC;rounded=1;labelBackgroundColor=default;endArrow=none;fontSize=11;gradientColor=none;fontStyle=1;endFill=0;" vertex="1" parent="1">
          <mxGeometry x="-100.00000000000006" y="550" width="30" height="30" as="geometry" />
        </mxCell>
        <mxCell id="DearfV66aNQ_4xWSn69P-187" value="" style="verticalLabelPosition=bottom;verticalAlign=top;html=1;strokeWidth=4;shape=mxgraph.flowchart.on-page_reference;strokeColor=#6c8ebf;fillColor=#dae8fc;rounded=1;" vertex="1" parent="1">
          <mxGeometry x="321.62" y="800" width="30" height="30" as="geometry" />
        </mxCell>
        <mxCell id="DearfV66aNQ_4xWSn69P-188" value="" style="verticalLabelPosition=bottom;verticalAlign=top;html=1;strokeWidth=4;shape=mxgraph.flowchart.on-page_reference;strokeColor=#6c8ebf;fillColor=#dae8fc;rounded=1;" vertex="1" parent="1">
          <mxGeometry x="401.62" y="710" width="30" height="30" as="geometry" />
        </mxCell>
        <mxCell id="DearfV66aNQ_4xWSn69P-189" value="Limesurvey" style="text;html=1;strokeColor=none;fillColor=none;align=left;verticalAlign=middle;whiteSpace=wrap;overflow=hidden;fontSize=14;fontStyle=1;fontFamily=Courier New;rounded=1;" vertex="1" parent="1">
          <mxGeometry x="130" y="627.75" width="110" height="50" as="geometry" />
        </mxCell>
        <mxCell id="DearfV66aNQ_4xWSn69P-192" value="" style="verticalLabelPosition=bottom;verticalAlign=top;html=1;strokeWidth=4;shape=mxgraph.flowchart.on-page_reference;strokeColor=#6c8ebf;fillColor=#dae8fc;rounded=1;" vertex="1" parent="1">
          <mxGeometry x="140" y="534.5" width="30" height="30" as="geometry" />
        </mxCell>
        <mxCell id="DearfV66aNQ_4xWSn69P-195" value="" style="endArrow=none;html=1;rounded=1;strokeColor=default;fontFamily=Helvetica;fontSize=11;fontColor=default;align=center;fillColor=none;gradientColor=none;fontStyle=1;endFill=0;strokeWidth=4;edgeStyle=elbowEdgeStyle;exitX=0.855;exitY=0.855;exitDx=0;exitDy=0;exitPerimeter=0;entryX=0;entryY=0.5;entryDx=0;entryDy=0;entryPerimeter=0;" edge="1" parent="1" source="DearfV66aNQ_4xWSn69P-101" target="DearfV66aNQ_4xWSn69P-187">
          <mxGeometry width="50" height="50" relative="1" as="geometry">
            <mxPoint x="-10" y="460" as="sourcePoint" />
            <mxPoint x="70" y="630" as="targetPoint" />
            <Array as="points">
              <mxPoint x="-210" y="600" />
              <mxPoint x="-240" y="790" />
              <mxPoint x="110" y="650" />
              <mxPoint x="200" y="660" />
              <mxPoint x="-270" y="560" />
              <mxPoint x="140" y="510" />
              <mxPoint x="10" y="460" />
            </Array>
          </mxGeometry>
        </mxCell>
        <mxCell id="DearfV66aNQ_4xWSn69P-198" value="" style="endArrow=none;html=1;rounded=1;strokeColor=default;fontFamily=Helvetica;fontSize=11;fontColor=default;align=center;fillColor=none;gradientColor=none;fontStyle=1;endFill=0;strokeWidth=4;entryX=0;entryY=0.5;entryDx=0;entryDy=0;entryPerimeter=0;edgeStyle=elbowEdgeStyle;" edge="1" parent="1" target="DearfV66aNQ_4xWSn69P-101">
          <mxGeometry width="50" height="50" relative="1" as="geometry">
            <mxPoint x="-200" y="493" as="sourcePoint" />
            <mxPoint x="-130" y="570.5" as="targetPoint" />
            <Array as="points">
              <mxPoint x="-200" y="393" />
            </Array>
          </mxGeometry>
        </mxCell>
        <mxCell id="DearfV66aNQ_4xWSn69P-101" value="" style="verticalLabelPosition=bottom;verticalAlign=top;html=1;strokeWidth=4;shape=mxgraph.flowchart.on-page_reference;plain-purple;gradientColor=none;strokeColor=#000000;fillColor=#D5E8D4;rounded=1;" vertex="1" parent="1">
          <mxGeometry x="-240" y="550" width="30" height="35" as="geometry" />
        </mxCell>
        <mxCell id="DearfV66aNQ_4xWSn69P-190" value="Leximancer" style="text;html=1;strokeColor=none;fillColor=none;align=left;verticalAlign=middle;whiteSpace=wrap;overflow=hidden;fontSize=14;fontStyle=1;fontFamily=Courier New;rounded=1;" vertex="1" parent="1">
          <mxGeometry x="260" y="760" width="110" height="50" as="geometry" />
        </mxCell>
        <mxCell id="DearfV66aNQ_4xWSn69P-204" value="" style="endArrow=none;html=1;rounded=1;strokeColor=#CC0000;fontFamily=Helvetica;fontSize=11;fontColor=default;align=center;fillColor=none;gradientColor=none;fontStyle=1;endFill=0;strokeWidth=4;edgeStyle=elbowEdgeStyle;startArrow=none;" edge="1" parent="1">
          <mxGeometry width="50" height="50" relative="1" as="geometry">
            <mxPoint x="20" y="499" as="sourcePoint" />
            <mxPoint x="-70" y="560" as="targetPoint" />
            <Array as="points">
              <mxPoint y="514" />
              <mxPoint x="-537" y="589" />
              <mxPoint x="-540" y="589" />
              <mxPoint x="-620" y="589" />
              <mxPoint x="-590" y="619" />
              <mxPoint x="-150" y="489" />
            </Array>
          </mxGeometry>
        </mxCell>
        <mxCell id="DearfV66aNQ_4xWSn69P-206" value="Interview line" style="text;html=1;strokeColor=none;fillColor=none;align=center;verticalAlign=top;whiteSpace=wrap;overflow=hidden;fontSize=17;fontStyle=1;rounded=1;labelBackgroundColor=default;endArrow=none;endFill=0;strokeWidth=4;startArrow=none;fontColor=#CC0000;" vertex="1" parent="1">
          <mxGeometry x="-163.64999999999998" y="770" width="222.43" height="30" as="geometry" />
        </mxCell>
        <mxCell id="DearfV66aNQ_4xWSn69P-165" value="" style="verticalLabelPosition=bottom;verticalAlign=top;html=1;strokeWidth=4;shape=mxgraph.flowchart.on-page_reference;strokeColor=#0e8088;fillColor=#b0e3e6;rounded=1;" vertex="1" parent="1">
          <mxGeometry x="-456.14" y="480" width="30" height="30" as="geometry" />
        </mxCell>
        <mxCell id="DearfV66aNQ_4xWSn69P-104" value="Digital texts &amp;amp; tools for HASS" style="text;html=1;strokeColor=none;fillColor=none;align=left;verticalAlign=middle;whiteSpace=wrap;overflow=hidden;fontSize=14;fontStyle=1;fontFamily=Courier New;rounded=1;" vertex="1" parent="1">
          <mxGeometry x="-272.43" y="570" width="140" height="74.5" as="geometry" />
        </mxCell>
        <mxCell id="DearfV66aNQ_4xWSn69P-246" value="" style="edgeStyle=elbowEdgeStyle;rounded=0;orthogonalLoop=1;jettySize=auto;html=1;strokeColor=#CC0000;fontFamily=Courier New;fontSize=17;fontColor=#CC0000;" edge="1" parent="1" source="DearfV66aNQ_4xWSn69P-228" target="DearfV66aNQ_4xWSn69P-118">
          <mxGeometry relative="1" as="geometry" />
        </mxCell>
        <mxCell id="DearfV66aNQ_4xWSn69P-228" value="" style="verticalLabelPosition=bottom;verticalAlign=top;html=1;strokeWidth=4;shape=mxgraph.flowchart.on-page_reference;plain-purple;gradientColor=none;strokeColor=#000000;fillColor=#D5E8D4;rounded=1;" vertex="1" parent="1">
          <mxGeometry x="-62.42999999999999" y="399.75" width="30" height="30.25" as="geometry" />
        </mxCell>
        <mxCell id="DearfV66aNQ_4xWSn69P-231" value="" style="endArrow=none;html=1;rounded=1;strokeColor=default;fontFamily=Helvetica;fontSize=11;fontColor=default;align=center;fillColor=none;gradientColor=none;fontStyle=1;endFill=0;strokeWidth=4;edgeStyle=elbowEdgeStyle;startArrow=none;entryX=0;entryY=0.5;entryDx=0;entryDy=0;entryPerimeter=0;" edge="1" parent="1" target="DearfV66aNQ_4xWSn69P-97">
          <mxGeometry width="50" height="50" relative="1" as="geometry">
            <mxPoint x="-310" y="497" as="sourcePoint" />
            <mxPoint x="-284.8600000000001" y="391.75" as="targetPoint" />
            <Array as="points">
              <mxPoint x="-310" y="467" />
              <mxPoint x="-317" y="487" />
            </Array>
          </mxGeometry>
        </mxCell>
        <mxCell id="DearfV66aNQ_4xWSn69P-234" value="" style="endArrow=none;html=1;rounded=1;strokeColor=default;fontFamily=Helvetica;fontSize=11;fontColor=default;align=center;fillColor=none;gradientColor=none;fontStyle=1;endFill=0;strokeWidth=4;edgeStyle=elbowEdgeStyle;startArrow=none;entryX=1;entryY=0.5;entryDx=0;entryDy=0;entryPerimeter=0;exitX=0.145;exitY=0.145;exitDx=0;exitDy=0;exitPerimeter=0;" edge="1" parent="1" source="DearfV66aNQ_4xWSn69P-111">
          <mxGeometry width="50" height="50" relative="1" as="geometry">
            <mxPoint x="-330" y="590.38" as="sourcePoint" />
            <mxPoint x="-329.8600000000001" y="495.13" as="targetPoint" />
            <Array as="points">
              <mxPoint x="-330" y="530" />
            </Array>
          </mxGeometry>
        </mxCell>
        <mxCell id="DearfV66aNQ_4xWSn69P-235" value="" style="endArrow=none;html=1;rounded=1;strokeColor=default;fontFamily=Helvetica;fontSize=11;fontColor=default;align=center;fillColor=none;gradientColor=none;fontStyle=1;endFill=0;strokeWidth=4;edgeStyle=elbowEdgeStyle;startArrow=none;exitX=1;exitY=0.5;exitDx=0;exitDy=0;exitPerimeter=0;" edge="1" parent="1">
          <mxGeometry width="50" height="50" relative="1" as="geometry">
            <mxPoint x="-305" y="577.75" as="sourcePoint" />
            <mxPoint x="-270" y="495" as="targetPoint" />
            <Array as="points">
              <mxPoint x="-300" y="505" />
            </Array>
          </mxGeometry>
        </mxCell>
        <mxCell id="DearfV66aNQ_4xWSn69P-244" value="" style="endArrow=none;html=1;rounded=1;strokeColor=default;fontFamily=Helvetica;fontSize=11;fontColor=default;align=center;fillColor=none;gradientColor=none;fontStyle=1;endFill=0;strokeWidth=4;edgeStyle=elbowEdgeStyle;startArrow=none;entryX=1;entryY=0.5;entryDx=0;entryDy=0;entryPerimeter=0;" edge="1" parent="1">
          <mxGeometry width="50" height="50" relative="1" as="geometry">
            <mxPoint x="7.290000000000134" y="498.75" as="sourcePoint" />
            <mxPoint x="-32.429999999999836" y="418.875" as="targetPoint" />
            <Array as="points">
              <mxPoint x="-12.709999999999994" y="448.75" />
            </Array>
          </mxGeometry>
        </mxCell>
        <mxCell id="DearfV66aNQ_4xWSn69P-245" value="" style="endArrow=none;html=1;rounded=1;strokeColor=default;fontFamily=Helvetica;fontSize=11;fontColor=default;align=center;fillColor=none;gradientColor=none;fontStyle=1;endFill=0;strokeWidth=4;edgeStyle=elbowEdgeStyle;" edge="1" parent="1">
          <mxGeometry width="50" height="50" relative="1" as="geometry">
            <mxPoint x="-60" y="412" as="sourcePoint" />
            <mxPoint x="-107.57" y="497" as="targetPoint" />
            <Array as="points">
              <mxPoint x="-87.57" y="289.5" />
            </Array>
          </mxGeometry>
        </mxCell>
        <mxCell id="DearfV66aNQ_4xWSn69P-225" value="" style="rounded=1;orthogonalLoop=1;jettySize=auto;html=1;endArrow=none;endFill=0;strokeWidth=4;startArrow=none;" edge="1" parent="1">
          <mxGeometry relative="1" as="geometry">
            <mxPoint x="95.14" y="500.5" as="sourcePoint" />
            <mxPoint x="-254.86" y="495.5" as="targetPoint" />
          </mxGeometry>
        </mxCell>
        <mxCell id="uWUnNED6HEl2aK5fdaIb-70" value="" style="verticalLabelPosition=bottom;verticalAlign=top;html=1;strokeWidth=4;shape=mxgraph.flowchart.on-page_reference;plain-purple;gradientColor=none;strokeColor=#000000;fillColor=#D5E8D4;rounded=1;" parent="1" vertex="1">
          <mxGeometry x="-180" y="480" width="30" height="30" as="geometry" />
        </mxCell>
        <mxCell id="DearfV66aNQ_4xWSn69P-247" value="Interviewing skills within mixed methods studies" style="text;html=1;strokeColor=none;fillColor=none;align=left;verticalAlign=middle;whiteSpace=wrap;overflow=hidden;fontSize=14;fontStyle=1;fontFamily=Courier New;rounded=1;" vertex="1" parent="1">
          <mxGeometry x="-151.35" y="720" width="257.57" height="74.5" as="geometry" />
        </mxCell>
        <mxCell id="DearfV66aNQ_4xWSn69P-248" value="" style="verticalLabelPosition=bottom;verticalAlign=middle;html=1;strokeWidth=4;shape=mxgraph.flowchart.on-page_reference;strokeColor=#CC0000;fillColor=#FFCCCC;rounded=1;labelBackgroundColor=default;endArrow=none;fontSize=11;gradientColor=none;fontStyle=1;endFill=0;" vertex="1" parent="1">
          <mxGeometry x="-122.43000000000006" y="600" width="30" height="30" as="geometry" />
        </mxCell>
        <mxCell id="DearfV66aNQ_4xWSn69P-250" value="" style="verticalLabelPosition=bottom;verticalAlign=middle;html=1;strokeWidth=4;shape=mxgraph.flowchart.on-page_reference;strokeColor=#CC0000;fillColor=#FFCCCC;rounded=1;labelBackgroundColor=default;endArrow=none;fontSize=11;gradientColor=none;fontStyle=1;endFill=0;" vertex="1" parent="1">
          <mxGeometry x="-7.570000000000057" y="587.75" width="30" height="30" as="geometry" />
        </mxCell>
        <mxCell id="DearfV66aNQ_4xWSn69P-251" value="Formulating open-ended questions" style="text;html=1;strokeColor=none;fillColor=none;align=left;verticalAlign=middle;whiteSpace=wrap;overflow=hidden;fontSize=14;fontStyle=1;fontFamily=Courier New;rounded=1;" vertex="1" parent="1">
          <mxGeometry x="-180" y="627.75" width="121.28" height="74.5" as="geometry" />
        </mxCell>
        <mxCell id="DearfV66aNQ_4xWSn69P-252" value="Formulating closed questions" style="text;html=1;strokeColor=none;fillColor=none;align=left;verticalAlign=middle;whiteSpace=wrap;overflow=hidden;fontSize=14;fontStyle=1;fontFamily=Courier New;rounded=1;" vertex="1" parent="1">
          <mxGeometry x="17.569999999999993" y="520" width="97.43" height="74.5" as="geometry" />
        </mxCell>
        <mxCell id="DearfV66aNQ_4xWSn69P-255" value="" style="endArrow=none;html=1;rounded=1;strokeColor=#CC0000;fontFamily=Helvetica;fontSize=11;fontColor=default;align=center;fillColor=none;gradientColor=none;fontStyle=1;endFill=0;strokeWidth=4;edgeStyle=elbowEdgeStyle;startArrow=none;exitX=0.855;exitY=0.855;exitDx=0;exitDy=0;exitPerimeter=0;entryX=0.145;entryY=0.145;entryDx=0;entryDy=0;entryPerimeter=0;" edge="1" parent="1" source="DearfV66aNQ_4xWSn69P-186" target="DearfV66aNQ_4xWSn69P-250">
          <mxGeometry width="50" height="50" relative="1" as="geometry">
            <mxPoint x="-100" y="560" as="sourcePoint" />
            <mxPoint x="-10" y="600" as="targetPoint" />
          </mxGeometry>
        </mxCell>
        <mxCell id="DearfV66aNQ_4xWSn69P-256" value="" style="edgeStyle=elbowEdgeStyle;rounded=1;orthogonalLoop=1;jettySize=auto;html=1;endArrow=none;endFill=0;strokeWidth=4;exitX=1;exitY=0.5;exitDx=0;exitDy=0;exitPerimeter=0;" edge="1" parent="1" source="uWUnNED6HEl2aK5fdaIb-69">
          <mxGeometry relative="1" as="geometry">
            <mxPoint x="-342.42999999999984" y="495" as="sourcePoint" />
            <mxPoint x="-200" y="495" as="targetPoint" />
            <Array as="points" />
          </mxGeometry>
        </mxCell>
        <mxCell id="DearfV66aNQ_4xWSn69P-254" value="Mixed methods foundations" style="text;html=1;strokeColor=none;fillColor=none;align=left;verticalAlign=middle;whiteSpace=wrap;overflow=hidden;fontSize=14;fontStyle=1;fontFamily=Courier New;rounded=1;" vertex="1" parent="1">
          <mxGeometry x="-140" y="495.5" width="140" height="74.5" as="geometry" />
        </mxCell>
        <mxCell id="DearfV66aNQ_4xWSn69P-257" value="" style="endArrow=none;html=1;rounded=1;strokeColor=#CC0000;fontFamily=Helvetica;fontSize=11;fontColor=default;align=center;fillColor=none;gradientColor=none;fontStyle=1;endFill=0;strokeWidth=4;edgeStyle=elbowEdgeStyle;startArrow=none;entryX=0.5;entryY=0;entryDx=0;entryDy=0;entryPerimeter=0;" edge="1" parent="1" target="DearfV66aNQ_4xWSn69P-248">
          <mxGeometry width="50" height="50" relative="1" as="geometry">
            <mxPoint x="-100" y="570" as="sourcePoint" />
            <mxPoint x="-97.43000000000029" y="625.5" as="targetPoint" />
            <Array as="points">
              <mxPoint x="-100" y="600.5" />
              <mxPoint x="-637" y="675.5" />
              <mxPoint x="-640" y="675.5" />
              <mxPoint x="-720" y="675.5" />
              <mxPoint x="-690" y="705.5" />
              <mxPoint x="-250" y="575.5" />
            </Array>
          </mxGeometry>
        </mxCell>
        <mxCell id="DearfV66aNQ_4xWSn69P-259" value="" style="endArrow=none;html=1;rounded=1;strokeColor=#CC0000;fontFamily=Helvetica;fontSize=11;fontColor=default;align=center;fillColor=none;gradientColor=none;fontStyle=1;endFill=0;strokeWidth=4;edgeStyle=elbowEdgeStyle;startArrow=none;entryX=0;entryY=0.5;entryDx=0;entryDy=0;entryPerimeter=0;" edge="1" parent="1" target="DearfV66aNQ_4xWSn69P-260">
          <mxGeometry width="50" height="50" relative="1" as="geometry">
            <mxPoint x="-90" y="610" as="sourcePoint" />
            <mxPoint x="-32.43000000000016" y="662.1" as="targetPoint" />
          </mxGeometry>
        </mxCell>
        <mxCell id="DearfV66aNQ_4xWSn69P-260" value="" style="verticalLabelPosition=bottom;verticalAlign=middle;html=1;strokeWidth=4;shape=mxgraph.flowchart.on-page_reference;strokeColor=#CC0000;fillColor=#FFCCCC;rounded=1;labelBackgroundColor=default;endArrow=none;fontSize=11;gradientColor=none;fontStyle=1;endFill=0;" vertex="1" parent="1">
          <mxGeometry x="-37.57000000000006" y="700" width="30" height="30" as="geometry" />
        </mxCell>
        <mxCell id="DearfV66aNQ_4xWSn69P-261" value="" style="endArrow=none;html=1;rounded=1;strokeColor=#CC0000;fontFamily=Helvetica;fontSize=11;fontColor=default;align=center;fillColor=none;gradientColor=none;fontStyle=1;endFill=0;strokeWidth=4;edgeStyle=elbowEdgeStyle;startArrow=none;exitX=0.855;exitY=0.855;exitDx=0;exitDy=0;exitPerimeter=0;entryX=1;entryY=0.5;entryDx=0;entryDy=0;entryPerimeter=0;" edge="1" parent="1" target="DearfV66aNQ_4xWSn69P-260">
          <mxGeometry width="50" height="50" relative="1" as="geometry">
            <mxPoint x="10.000000000000085" y="617.7500000000001" as="sourcePoint" />
            <mxPoint x="81.12999999999974" y="634.1999999999999" as="targetPoint" />
          </mxGeometry>
        </mxCell>
      </root>
    </mxGraphModel>
  </diagram>
</mxfile>
